<?xml version="1.0" standalone="no"?>
<!DOCTYPE svg PUBLIC "-//W3C//DTD SVG 20010904//EN"
 "http://www.w3.org/TR/2001/REC-SVG-20010904/DTD/svg10.dtd">
<svg version="1.0" xmlns="http://www.w3.org/2000/svg"
 width="840.000000pt" height="859.000000pt" viewBox="0 0 840.000000 859.000000"
 preserveAspectRatio="xMidYMid meet">
<metadata>
Created by potrace 1.16, written by Peter Selinger 2001-2019
</metadata>
<g transform="translate(0.000000,859.000000) scale(0.100000,-0.100000)"
fill="#000000" stroke="none">
<path d="M3850 8454 c-520 -50 -1017 -186 -1455 -399 -1214 -588 -2058 -1699
-2300 -3027 -121 -665 -69 -1402 144 -2046 344 -1040 1111 -1927 2088 -2416
465 -233 941 -371 1457 -422 220 -23 640 -23 848 -1 897 96 1684 446 2367
1053 688 611 1173 1502 1325 2434 41 250 51 379 51 655 0 287 -12 433 -56 695
-144 850 -519 1595 -1116 2210 -552 570 -1231 964 -1988 1154 -278 69 -485 98
-845 116 -245 12 -338 11 -520 -6z m655 -525 c826 -45 1663 -433 2285 -1059
515 -518 870 -1193 1004 -1910 79 -421 81 -890 5 -1310 -107 -593 -373 -1171
-765 -1660 -104 -130 -273 -310 -291 -310 -6 0 -24 37 -39 82 -62 190 -168
407 -282 582 -179 274 -473 574 -762 778 -319 225 -734 378 -1177 434 -152 19
-443 22 -593 5 -825 -93 -1569 -565 -1997 -1270 -85 -140 -138 -245 -208 -418
-32 -80 -63 -143 -71 -143 -15 0 -150 146 -259 280 -424 521 -691 1155 -782
1855 -25 198 -25 662 0 860 142 1100 728 2034 1654 2639 501 327 1107 531
1723 579 62 5 327 -2 555 -14z"/>
<path d="M3969 7120 c-133 -16 -355 -88 -505 -163 -422 -212 -742 -643 -820
-1102 -24 -142 -24 -427 0 -560 97 -534 473 -985 984 -1179 204 -78 224 -81
547 -81 314 0 314 0 500 65 524 182 913 622 1026 1163 26 122 31 403 10 557
-24 180 -137 462 -252 635 -148 221 -419 440 -689 556 -222 96 -542 139 -801
109z"/>
</g>
</svg>
