<?xml version="1.0" standalone="no"?>
<!DOCTYPE svg PUBLIC "-//W3C//DTD SVG 20010904//EN"
 "http://www.w3.org/TR/2001/REC-SVG-20010904/DTD/svg10.dtd">
<svg version="1.0" xmlns="http://www.w3.org/2000/svg"
 width="840.000000pt" height="1003.000000pt" viewBox="0 0 840.000000 1003.000000"
 preserveAspectRatio="xMidYMid meet">
<metadata>
Created by potrace 1.16, written by Peter Selinger 2001-2019
</metadata>
<g transform="translate(0.000000,1003.000000) scale(0.100000,-0.100000)"
fill="#000000" stroke="none">
<path d="M3960 9719 c-318 -35 -599 -117 -870 -255 -649 -329 -1126 -934
-1290 -1640 -52 -223 -53 -239 -57 -926 l-4 -648 -192 0 c-351 0 -498 -25
-676 -114 -242 -122 -417 -319 -507 -572 -68 -189 -65 -75 -62 -2341 l3 -2048
27 -97 c99 -358 338 -612 686 -728 48 -16 122 -33 165 -39 54 -8 987 -11 3021
-11 2593 0 2954 2 3032 15 383 66 686 324 808 688 53 161 51 60 51 2282 l0
2070 -23 88 c-80 315 -259 546 -533 687 -184 95 -326 120 -675 120 l-204 0 0
588 c0 460 -3 615 -15 716 -64 547 -304 1046 -693 1440 -205 208 -412 356
-677 486 -232 114 -460 185 -725 225 -126 19 -470 28 -590 14z m445 -409 c253
-28 471 -91 692 -199 235 -116 393 -231 578 -422 319 -331 503 -716 561 -1179
11 -87 14 -250 14 -687 l0 -573 -2050 0 -2050 0 0 565 c0 330 4 606 11 663 41
377 177 726 398 1022 72 96 255 285 351 363 239 193 557 345 860 412 183 41
451 55 635 35z m2816 -3384 c174 -61 337 -235 414 -441 58 -152 55 -48 55
-2211 0 -2219 4 -2076 -68 -2224 -75 -155 -249 -290 -417 -325 -105 -22 -5905
-22 -6009 0 -204 43 -379 202 -453 410 l-28 80 0 2055 0 2055 22 77 c74 255
246 457 449 527 59 20 72 20 3014 20 l2955 1 66 -24z"/>
<path d="M4105 4394 c-11 -2 -40 -10 -65 -16 -88 -21 -201 -89 -275 -163 -120
-120 -178 -260 -178 -430 0 -155 52 -294 153 -407 l49 -55 3 -329 c4 -387 6
-399 108 -508 169 -180 431 -180 600 0 102 109 104 121 108 508 l3 329 49 55
c216 242 205 607 -25 837 -72 72 -168 131 -262 161 -48 15 -230 27 -268 18z"/>
</g>
</svg>
