<?xml version="1.0" standalone="no"?>
<!DOCTYPE svg PUBLIC "-//W3C//DTD SVG 20010904//EN"
 "http://www.w3.org/TR/2001/REC-SVG-20010904/DTD/svg10.dtd">
<svg version="1.0" xmlns="http://www.w3.org/2000/svg"
 width="1600.000000pt" height="1200.000000pt" viewBox="0 0 1600.000000 1200.000000"
 preserveAspectRatio="xMidYMid meet">

<g transform="translate(0.000000,1200.000000) scale(0.100000,-0.100000)"
fill="#000000" stroke="none">
<path d="M7793 9519 c-53 -26 -90 -74 -107 -140 l-13 -53 -59 -13 c-326 -73
-626 -265 -820 -523 -120 -159 -221 -395 -260 -607 -9 -48 -19 -174 -23 -279
l-6 -190 -55 -49 c-93 -82 -123 -151 -100 -236 10 -36 9 -44 -5 -51 -99 -56
-165 -181 -165 -313 0 -167 87 -323 215 -386 61 -30 69 -31 152 -27 101 6 139
-6 166 -51 9 -16 17 -31 17 -34 0 -3 -737 -8 -1637 -10 -1243 -3 -1649 -7
-1683 -16 -187 -51 -337 -201 -385 -388 -13 -49 -15 -233 -15 -1312 l0 -1254
-54 -86 c-88 -141 -91 -148 -90 -231 1 -64 7 -93 47 -198 26 -67 53 -135 62
-151 20 -40 70 -88 114 -110 57 -29 496 -133 528 -125 51 12 100 46 124 85 21
35 28 39 58 37 l35 -3 17 -83 c33 -152 129 -321 243 -425 22 -21 73 -60 113
-86 40 -27 69 -51 66 -55 -4 -3 -245 -6 -538 -6 -400 0 -534 -3 -543 -12 -18
-18 -15 -53 6 -71 17 -16 367 -17 4833 -17 3837 0 4818 3 4831 12 21 18 27 39
17 66 l-8 22 -294 0 c-162 0 -296 3 -300 6 -3 4 27 28 68 55 82 53 175 142
224 212 51 75 109 204 127 283 14 66 18 74 40 74 19 0 25 -8 35 -42 14 -53 75
-115 123 -124 27 -5 98 13 323 81 158 48 304 96 325 106 49 25 95 84 113 143
13 44 13 93 -6 455 l-21 405 -58 86 c-49 73 -58 94 -64 148 -13 115 -60 239
-129 342 -47 70 -134 167 -170 188 -24 15 -156 39 -562 102 -291 45 -701 108
-910 140 -209 32 -400 66 -424 74 -74 27 -111 55 -256 196 -520 503 -956 826
-1445 1070 -142 71 -446 199 -513 215 -15 4 -30 11 -33 16 -3 5 17 46 44 92
27 45 61 105 76 134 40 81 62 93 166 92 74 -1 97 3 143 24 179 82 266 339 177
523 -12 23 -43 63 -69 87 l-49 46 15 43 c29 84 4 147 -92 235 l-65 60 0 139
c-1 439 -132 792 -395 1063 -189 195 -408 319 -683 387 -108 26 -111 28 -118
58 -15 72 -58 128 -121 160 -51 26 -245 23 -300 -5z m293 -103 c19 -19 34 -42
34 -52 0 -18 -10 -19 -167 -16 -93 2 -170 6 -172 8 -8 8 20 50 42 64 30 19 79
27 161 29 65 1 70 -1 102 -33z m194 -199 c262 -62 452 -162 628 -331 251 -240
382 -549 399 -940 l6 -148 -21 11 c-12 7 -22 15 -22 20 0 14 -273 188 -390
249 -388 202 -761 275 -1156 226 l-131 -17 -94 27 c-209 60 -341 151 -406 284
-37 73 -38 80 -38 181 0 59 3 118 7 132 18 62 314 233 489 282 162 46 255 57
449 52 142 -3 195 -8 280 -28z m-60 -1023 c359 -55 717 -226 1074 -514 152
-122 179 -152 179 -187 -1 -71 -55 -121 -117 -109 -19 4 -77 45 -151 107 -301
253 -629 424 -935 490 -138 30 -382 36 -528 15 -347 -51 -695 -224 -1052 -523
-96 -81 -108 -88 -148 -88 -58 0 -92 36 -92 99 0 41 4 48 61 101 163 150 414
322 624 425 367 181 717 241 1085 184z m-150 -294 c206 -18 413 -80 621 -186
94 -48 272 -159 337 -211 21 -17 25 -39 52 -263 27 -228 31 -245 55 -269 19
-19 35 -26 66 -26 61 0 79 28 124 190 21 75 43 138 49 140 105 26 108 26 135
9 60 -38 101 -122 101 -204 0 -103 -66 -219 -150 -263 -49 -25 -60 -27 -121
-21 -119 11 -185 -29 -246 -150 -147 -294 -393 -543 -657 -667 -579 -271
-1258 -12 -1601 611 -57 104 -69 118 -122 142 -34 15 -62 18 -141 16 -95 -3
-101 -1 -147 27 -128 79 -186 285 -117 416 17 33 44 65 69 83 l42 29 61 -17
c33 -9 70 -16 82 -14 23 3 19 12 78 -181 37 -119 61 -151 113 -151 37 0 82 29
92 59 3 9 18 127 34 260 18 144 35 249 43 259 26 32 227 155 353 217 72 35
173 77 225 93 160 50 221 61 440 81 8 0 67 -4 130 -9z m-1250 -1482 c118 -214
386 -439 654 -549 l91 -38 3 -53 3 -54 -443 -164 c-244 -90 -467 -172 -497
-182 -74 -26 -158 -86 -220 -155 -57 -63 -127 -192 -136 -251 -3 -20 -45 -200
-92 -399 l-86 -363 -33 -10 c-70 -23 -122 -118 -105 -192 19 -84 80 -128 175
-128 l56 0 0 -336 0 -336 -132 6 c-73 3 -217 9 -320 12 l-186 6 -22 51 c-40
98 -113 201 -212 301 -65 65 -95 102 -90 110 5 6 46 56 91 111 l82 99 -23 18
c-98 74 -293 159 -435 190 -54 11 -104 22 -111 24 -10 3 -9 9 4 29 12 19 18
65 25 186 15 262 10 266 -332 275 -252 6 -271 3 -317 -66 -24 -34 -24 -39 -20
-203 6 -185 10 -198 76 -243 l30 -21 -54 -17 c-125 -39 -266 -122 -441 -260
l-24 -18 -72 63 c-40 35 -133 118 -208 186 l-136 122 -6 268 c-8 317 -13 340
-92 419 -38 39 -66 57 -108 70 l-57 18 0 572 c0 532 1 576 19 633 45 145 150
251 296 297 32 10 390 13 1711 13 l1670 1 24 -42z m2303 -159 c644 -236 1170
-583 1808 -1192 205 -196 266 -243 350 -271 30 -9 376 -66 769 -126 393 -60
729 -113 745 -118 29 -9 28 -9 -20 -16 -130 -18 -175 -52 -175 -132 0 -25 4
-54 10 -64 5 -10 54 -58 107 -106 54 -48 99 -91 101 -95 3 -7 -168 -203 -373
-427 -9 -10 -30 -2 -106 37 -52 27 -134 62 -184 77 -84 26 -102 28 -270 28
-167 0 -186 -2 -268 -27 -138 -43 -259 -108 -371 -201 -121 -102 -247 -303
-296 -475 l-24 -83 -231 6 c-126 4 -351 11 -500 16 -148 6 -298 10 -333 10
l-62 0 2 388 3 387 45 5 c59 7 103 35 129 80 25 45 28 118 6 159 -17 33 -70
81 -90 81 -8 0 -17 5 -21 12 -4 6 -33 115 -65 241 l-57 230 156 -7 c266 -11
302 -16 302 -38 0 -11 15 -35 34 -54 29 -29 41 -34 79 -34 52 0 114 20 177 58
44 27 48 27 213 27 140 0 168 -2 172 -15 32 -109 48 -248 59 -535 8 -181 9
-320 4 -334 -5 -13 -33 -58 -64 -99 -106 -145 -186 -347 -183 -461 1 -46 1
-46 10 14 20 134 90 291 184 410 107 135 96 80 92 495 -4 342 -5 375 -30 515
-15 83 -33 164 -41 180 -25 53 -181 237 -297 351 -248 240 -568 468 -910 648
-282 148 -515 212 -839 231 -58 4 -110 8 -117 10 -13 4 225 252 245 254 6 0
63 -18 125 -40z m-58 -324 c55 -8 104 -15 110 -15 5 0 -11 -20 -35 -45 -50
-51 -55 -46 83 -71 l98 -17 37 36 37 35 60 -22 c66 -25 269 -126 298 -148 18
-13 17 -14 -2 -32 -12 -11 -21 -23 -21 -27 0 -4 39 -29 88 -55 48 -26 122 -69
166 -96 l78 -49 22 20 23 21 87 -61 c79 -57 85 -63 71 -79 -16 -18 -20 -40 -7
-40 4 0 15 -7 26 -15 18 -14 18 -15 -8 -45 -33 -40 -32 -35 -50 -279 -9 -112
-18 -206 -21 -209 -7 -8 -459 18 -467 26 -3 4 -16 45 -28 92 -54 218 -113 331
-217 417 -94 78 -93 78 -738 315 -148 55 -289 107 -312 115 l-43 15 0 64 c0
59 2 65 24 74 13 5 99 5 202 1 99 -5 186 -5 194 0 8 4 33 26 55 48 45 47 46
47 190 26z m-768 -190 c-17 -194 -152 -316 -338 -303 -165 12 -289 143 -289
305 0 53 1 55 23 49 12 -4 76 -12 141 -18 128 -12 292 -1 391 26 82 22 79 25
72 -59z m-692 -181 c56 -115 173 -200 308 -225 175 -32 373 70 437 225 13 31
29 56 35 56 24 0 33 -21 24 -59 -27 -119 -107 -219 -217 -269 -270 -125 -604
14 -639 264 -4 34 -2 48 8 55 8 5 15 9 15 9 1 0 14 -25 29 -56z m1314 -140
c218 -80 417 -159 442 -175 65 -41 152 -135 184 -200 27 -51 228 -822 218
-832 -2 -3 -79 -3 -171 0 l-167 4 -5 228 -5 228 -30 48 c-20 32 -45 56 -74 72
l-44 23 -1268 0 c-871 0 -1276 -3 -1296 -11 -40 -15 -81 -57 -109 -111 -23
-46 -24 -55 -24 -263 l0 -215 -180 0 c-137 0 -180 3 -180 13 0 6 40 177 89
379 57 231 100 388 118 425 37 77 138 182 210 221 53 27 803 306 808 300 1 -2
10 -28 20 -58 60 -187 193 -302 398 -344 96 -20 158 -20 255 0 203 42 358 183
394 358 6 31 13 56 16 56 3 0 183 -66 401 -146z m1501 -255 c102 -46 171 -153
169 -262 l-1 -52 -20 65 c-26 84 -67 142 -131 185 -28 19 -55 35 -59 35 -4 0
-19 5 -33 10 -23 9 -25 13 -15 25 17 20 36 19 90 -6z m356 -295 c64 -82 90
-129 75 -138 -4 -3 -23 15 -41 40 -18 26 -57 75 -87 110 -30 35 -59 78 -64 96
l-9 31 31 -29 c17 -16 60 -65 95 -110z m-7600 -40 c74 -48 104 -113 104 -227
0 -60 -2 -68 -17 -65 -14 2 -20 17 -25 65 -8 78 -35 130 -93 181 -73 65 -51
99 31 46z m4525 -424 c-2 -195 1 -325 8 -342 5 -14 20 -36 32 -47 22 -20 33
-21 252 -21 136 0 236 4 247 10 42 23 45 42 50 385 l5 330 440 3 c242 2 459 0
482 -3 53 -8 88 -43 97 -98 4 -23 4 -385 0 -804 l-7 -763 -52 3 c-43 2 -58 -3
-87 -25 -66 -50 -70 -74 -66 -415 3 -288 4 -303 24 -330 34 -46 82 -73 130
-73 49 0 54 -10 22 -40 -21 -19 -34 -20 -243 -20 -262 0 -425 12 -623 45 -251
43 -511 118 -694 202 l-78 36 0 271 c0 251 -2 273 -20 303 -10 17 -28 37 -39
43 -20 10 -560 10 -604 -1 -15 -3 -28 11 -56 61 -85 151 -151 326 -203 537
l-31 128 -4 430 c-4 474 -5 466 57 498 32 16 74 17 499 15 l465 -3 -3 -315z
m499 0 l0 -320 -199 0 c-172 0 -200 2 -205 16 -8 21 -8 609 1 617 3 4 96 7
205 7 l198 0 0 -320z m5011 30 c112 -117 199 -296 199 -409 l0 -50 -56 -11
c-60 -13 -127 -7 -214 17 -58 17 -60 18 -352 286 -65 60 -118 117 -118 126 0
46 18 52 221 76 279 33 254 35 320 -35z m-9933 -98 c2 -137 2 -142 -18 -142
-19 0 -20 6 -20 138 0 76 3 142 7 146 21 21 28 -10 31 -142z m1446 117 c45
-21 57 -65 54 -196 l-3 -117 -237 -1 c-286 0 -274 -5 -271 113 2 42 6 107 9
145 l6 67 209 0 c134 0 217 -4 233 -11z m-1198 -541 c124 -112 265 -239 314
-283 77 -69 87 -82 75 -94 -12 -12 -23 -6 -80 45 -36 32 -89 78 -118 101 -28
22 -142 122 -252 222 l-200 180 -77 1 c-71 0 -97 8 -81 24 3 3 48 6 100 6 l94
0 225 -202z m3044 127 l0 -65 -233 0 c-194 0 -236 3 -255 16 -36 25 -25 92 18
107 8 3 117 6 243 6 l227 1 0 -65z m3323 33 c17 -23 18 -31 8 -56 -7 -16 -22
-33 -34 -38 -12 -5 -118 -8 -234 -6 l-213 3 0 65 0 64 226 -2 227 -3 20 -27z
m3003 -13 c4 -10 -31 -54 -102 -130 -60 -64 -148 -157 -196 -208 -47 -51 -89
-89 -93 -85 -4 4 53 76 126 160 264 305 253 294 265 263z m595 -223 l46 -67
17 -315 c19 -370 20 -473 5 -503 -15 -28 -49 -66 -71 -78 -14 -7 -12 1 9 40
l25 50 -16 298 c-9 164 -19 348 -22 408 -6 105 -8 113 -41 162 -33 49 -36 73
-10 73 7 0 33 -31 58 -68z m-3793 -584 l-3 -623 -24 -45 c-25 -48 -59 -90 -73
-90 -4 0 -8 92 -8 205 0 183 -2 210 -19 243 -25 49 -56 76 -114 102 l-47 21 0
399 0 399 118 4 c64 1 130 4 145 5 l28 2 -3 -622z m-3120 210 l2 -396 -36 -12
c-47 -16 -100 -63 -125 -111 -17 -34 -19 -60 -19 -239 0 -221 -2 -227 -52
-153 -56 83 -58 104 -58 735 l0 579 143 -3 142 -3 3 -397z m-1722 136 c372
-107 596 -475 518 -852 -14 -68 -52 -177 -59 -170 -2 2 6 37 17 78 28 105 28
286 0 391 -75 280 -288 486 -577 560 -65 16 -67 18 -29 18 23 1 82 -10 130
-25z m7218 6 c205 -52 385 -198 476 -385 89 -181 100 -374 35 -568 -35 -102
-45 -101 -19 0 27 106 31 262 9 368 -8 40 -37 116 -66 175 -46 92 -64 117
-148 201 -82 82 -110 103 -191 142 -52 26 -129 56 -170 66 -61 16 -68 19 -39
20 20 1 70 -8 113 -19z m-7301 -320 c116 -36 204 -116 259 -235 20 -43 23 -66
23 -160 0 -106 -1 -113 -35 -179 -147 -294 -542 -315 -719 -38 -73 115 -82
275 -21 398 91 186 296 275 493 214z m7205 10 c149 -35 277 -162 311 -311 42
-181 -52 -382 -218 -464 -251 -126 -548 34 -592 317 -25 158 62 336 199 411
94 51 206 68 300 47z m-513 -162 c-190 -348 73 -756 468 -725 49 4 64 2 49 -4
-42 -16 -155 -21 -217 -10 -185 35 -342 186 -385 370 -17 72 -8 201 19 271 18
47 86 160 97 160 2 0 -12 -28 -31 -62z m-7247 -25 c-168 -342 89 -723 472
-701 84 5 85 5 35 -7 -188 -48 -401 35 -508 197 -95 145 -110 315 -41 468 21
46 69 120 78 120 1 0 -15 -35 -36 -77z m1920 21 c48 -5 53 -8 50 -27 -2 -12
-7 -22 -13 -22 -448 10 -571 17 -582 32 -7 9 -13 21 -13 26 0 9 455 1 558 -9z
m4277 -129 c248 -8 463 -15 478 -15 24 0 28 -4 25 -22 -3 -22 -7 -23 -83 -21
-490 11 -976 25 -1002 29 -24 4 -33 10 -33 24 0 25 3 25 615 5z m-2874 -15
c18 -10 19 -24 19 -255 0 -135 -2 -245 -5 -245 -3 0 -30 16 -60 35 l-55 35 0
105 c0 87 3 105 15 105 8 0 15 6 15 13 0 18 -63 120 -75 120 -11 0 -74 -101
-75 -120 0 -7 7 -13 15 -13 12 0 15 -14 15 -70 0 -38 -3 -70 -6 -70 -3 0 -28
19 -55 42 -37 31 -49 48 -49 70 0 18 5 28 15 28 8 0 15 3 15 7 0 12 -71 133
-78 133 -4 0 -17 -18 -30 -40 -12 -22 -26 -40 -31 -40 -12 0 -111 128 -111
144 0 8 8 17 18 19 37 10 484 7 503 -3z m-757 -42 c16 -23 23 -118 8 -118 -35
0 -179 -23 -185 -30 -11 -10 30 -19 121 -28 l67 -7 0 -95 0 -95 -67 -7 c-176
-17 -173 -34 10 -54 l62 -7 0 -71 c0 -109 -8 -116 -131 -116 -173 0 -179 10
-179 325 0 316 5 325 177 325 94 0 103 -2 117 -22z m2682 -12 l34 -34 0 -257
0 -257 -34 -34 -34 -34 -98 0 c-127 0 -134 5 -134 109 l0 77 92 12 c134 18
134 27 1 47 -48 8 -89 14 -90 15 -2 0 -3 40 -3 89 l0 89 28 6 c15 3 52 8 82
12 30 3 64 10 75 14 20 7 20 7 0 13 -20 7 -149 26 -172 27 -9 0 -13 18 -13 54
0 79 10 86 132 86 l100 0 34 -34z m1622 -211 c17 -88 62 -196 114 -277 52 -81
166 -193 246 -242 34 -22 62 -43 62 -47 0 -10 -1509 -12 -1872 -2 l-247 6 12
30 c9 20 24 33 52 43 24 8 57 32 83 61 24 26 47 51 50 55 4 4 35 33 70 64 47
43 71 75 98 130 l35 74 540 0 c518 0 541 1 578 20 49 25 79 62 94 118 10 39
14 43 41 40 28 -3 30 -7 44 -73z m-5544 28 c19 -37 75 -89 107 -102 15 -5 146
-13 293 -17 216 -6 266 -10 266 -21 0 -34 66 -140 117 -188 57 -54 70 -67 139
-139 22 -23 56 -46 75 -52 32 -9 69 -57 55 -71 -11 -11 -1556 -17 -1556 -6 0
6 26 26 58 46 171 106 306 291 358 488 9 35 18 70 20 77 7 24 53 14 68 -15z"/>
<path d="M7291 7588 c-52 -27 -106 -90 -98 -113 6 -13 15 -10 67 16 76 40 136
42 241 5 119 -41 136 -33 71 32 -79 79 -197 104 -281 60z"/>
<path d="M8430 7601 c-70 -22 -158 -96 -147 -125 5 -13 19 -10 89 16 108 40
166 41 240 5 30 -15 60 -27 66 -27 41 0 -30 93 -93 121 -41 19 -111 23 -155
10z"/>
<path d="M7395 7291 c-11 -5 -35 -23 -52 -41 -91 -93 -82 -300 16 -383 42 -35
74 -42 121 -28 99 29 155 184 116 315 -33 108 -122 169 -201 137z m120 -111
c41 -46 4 -163 -43 -134 -42 27 -51 103 -15 139 20 20 36 19 58 -5z"/>
<path d="M8384 7281 c-120 -73 -140 -291 -36 -400 66 -69 141 -65 206 10 40
47 56 97 56 176 0 101 -33 171 -101 212 -42 26 -85 27 -125 2z m51 -101 c35
-39 13 -140 -30 -140 -24 0 -50 41 -50 80 0 39 26 80 50 80 7 0 20 -9 30 -20z"/>
<path d="M8075 6659 c-97 -35 -157 -37 -268 -8 -46 11 -97 18 -115 15 -72 -11
-131 -87 -132 -168 0 -100 92 -234 200 -288 159 -80 358 -50 472 71 62 66 91
141 92 239 1 90 -19 135 -69 156 -48 20 -88 16 -180 -17z"/>
<path d="M8188 3424 c-58 -31 -58 -28 -58 -564 0 -539 -1 -534 60 -565 43 -22
757 -22 800 0 61 31 60 26 60 565 0 539 1 534 -60 565 -43 22 -761 22 -802 -1z
m774 -71 c17 -15 18 -44 18 -494 0 -421 -2 -479 -16 -493 -13 -14 -61 -16
-371 -16 -318 0 -358 2 -375 17 -17 15 -18 44 -18 491 0 428 2 477 17 494 15
17 40 18 371 18 317 0 357 -2 374 -17z"/>
<path d="M8323 3273 c-24 -2 -43 -8 -43 -12 0 -19 345 -22 390 -3 37 14 -225
26 -347 15z"/>
<path d="M8292 3141 c-19 -12 60 -21 177 -21 120 0 207 10 189 21 -17 11 -349
11 -366 0z"/>
<path d="M8312 3023 c-18 -2 -30 -9 -27 -14 8 -11 372 -12 379 0 11 17 -243
27 -352 14z"/>
<path d="M8307 2574 c-4 -4 -7 -43 -7 -86 0 -77 0 -78 25 -78 26 0 26 0 23 82
-2 65 -6 83 -18 86 -9 1 -19 0 -23 -4z"/>
<path d="M8375 2568 c-10 -24 -1 -153 10 -153 13 0 19 145 6 158 -7 7 -12 5
-16 -5z"/>
<path d="M8464 2567 c-3 -8 -4 -45 -2 -83 3 -66 4 -69 28 -69 25 0 25 1 25 80
0 75 -1 80 -23 83 -12 2 -24 -3 -28 -11z"/>
<path d="M8647 2574 c-4 -4 -7 -43 -7 -86 l0 -78 40 0 41 0 -3 83 -3 82 -30 3
c-17 2 -34 0 -38 -4z"/>
<path d="M8420 2489 c0 -51 4 -78 10 -74 6 3 10 40 10 81 0 43 -4 74 -10 74
-6 0 -10 -34 -10 -81z"/>
<path d="M8542 2493 c2 -44 7 -78 13 -78 6 0 11 34 13 78 2 65 0 77 -13 77
-13 0 -15 -12 -13 -77z"/>
<path d="M8590 2496 c0 -41 5 -78 10 -81 6 -4 10 23 10 74 0 47 -4 81 -10 81
-6 0 -10 -31 -10 -74z"/>
<path d="M8743 2495 c0 -44 2 -61 4 -37 2 23 2 59 0 80 -2 20 -4 1 -4 -43z"/>
<path d="M8770 2490 c0 -47 4 -80 10 -80 6 0 10 33 10 80 0 47 -4 80 -10 80
-6 0 -10 -33 -10 -80z"/>
<path d="M4610 3271 c-17 -32 -12 -69 12 -85 30 -21 44 -20 68 4 24 24 26 63
4 84 -22 23 -71 20 -84 -3z"/>
<path d="M4377 3172 c-35 -38 -13 -92 36 -92 40 0 57 15 57 51 0 53 -59 79
-93 41z"/>
<path d="M4846 3168 c-31 -44 -9 -88 44 -88 34 0 60 23 60 54 0 52 -75 76
-104 34z"/>
<path d="M4565 3073 c-70 -37 -108 -99 -108 -178 0 -60 19 -101 67 -143 156
-137 394 36 307 223 -22 47 -64 89 -104 104 -41 16 -127 13 -162 -6z"/>
<path d="M4975 2952 c-31 -7 -45 -22 -45 -52 0 -54 61 -79 100 -40 25 25 26
52 3 72 -26 22 -36 25 -58 20z"/>
<path d="M4274 2925 c-9 -14 -13 -32 -9 -45 15 -47 86 -50 107 -5 27 59 -62
105 -98 50z"/>
<path d="M4377 2702 c-23 -25 -21 -58 3 -82 24 -24 38 -25 68 -4 26 18 30 65
6 88 -21 21 -57 20 -77 -2z"/>
<path d="M4844 2695 c-22 -33 -11 -73 23 -86 36 -14 73 11 73 51 0 58 -65 82
-96 35z"/>
<path d="M4616 2607 c-21 -16 -24 -60 -6 -82 16 -20 64 -19 84 1 49 49 -22
122 -78 81z"/>
<path d="M11844 3265 c-22 -33 -11 -73 23 -86 53 -20 105 50 68 91 -26 28 -71
26 -91 -5z"/>
<path d="M11616 3174 c-19 -18 -21 -65 -4 -82 20 -20 76 -15 88 7 32 61 -37
123 -84 75z"/>
<path d="M12080 3171 c-14 -26 -13 -64 2 -79 7 -7 26 -12 43 -12 39 0 55 16
55 55 0 40 -16 55 -57 55 -22 0 -36 -6 -43 -19z"/>
<path d="M11805 3076 c-17 -7 -44 -29 -62 -49 -107 -122 -37 -304 125 -324
132 -15 245 113 211 241 -24 90 -97 146 -191 146 -29 -1 -67 -7 -83 -14z"/>
<path d="M12203 2950 c-64 -26 -43 -110 27 -110 49 0 69 76 28 104 -25 18 -25
18 -55 6z"/>
<path d="M11510 2931 c-23 -43 2 -91 47 -91 42 0 71 68 41 98 -20 20 -76 15
-88 -7z"/>
<path d="M11616 2704 c-34 -34 -6 -104 41 -104 21 0 53 38 53 63 0 48 -61 74
-94 41z"/>
<path d="M12087 2702 c-34 -37 -8 -102 40 -102 21 0 53 38 53 63 0 49 -61 74
-93 39z"/>
<path d="M11847 2602 c-22 -25 -21 -55 2 -76 27 -25 72 -17 90 15 13 24 13 29
-2 53 -21 31 -66 35 -90 8z"/>
</g>
</svg>
