<?xml version="1.0" standalone="no"?>
<!DOCTYPE svg PUBLIC "-//W3C//DTD SVG 20010904//EN"
 "http://www.w3.org/TR/2001/REC-SVG-20010904/DTD/svg10.dtd">
<svg version="1.0" xmlns="http://www.w3.org/2000/svg"
 width="225.000000pt" height="225.000000pt" viewBox="0 0 225.000000 225.000000"
 preserveAspectRatio="xMidYMid meet">

<g transform="translate(0.000000,225.000000) scale(0.100000,-0.100000)"
fill="#000000" stroke="none">
<path d="M975 2239 c-366 -46 -713 -302 -870 -642 -136 -294 -136 -650 0 -944
103 -224 306 -430 529 -538 373 -181 826 -140 1152 103 570 425 621 1235 108
1722 -248 236 -574 342 -919 299z m365 -86 c184 -36 386 -146 526 -287 486
-488 385 -1288 -206 -1643 -189 -114 -416 -165 -634 -143 -128 13 -227 41
-342 95 -254 119 -433 309 -537 570 -52 130 -69 227 -69 380 0 153 17 250 69
380 104 261 283 451 537 570 208 98 425 124 656 78z"/>
<path d="M1455 1707 c-69 -23 -100 -44 -153 -102 -81 -89 -96 -139 -97 -325
l0 -155 38 -79 c61 -128 48 -227 -37 -285 -22 -15 -103 -63 -179 -106 -169
-95 -192 -121 -192 -209 0 -57 2 -61 24 -64 28 -4 41 12 41 51 0 58 22 79 186
172 88 50 174 103 193 120 52 45 71 96 71 193 0 76 -3 88 -37 155 l-38 72 0
135 c0 128 2 138 29 198 51 111 147 172 271 172 124 0 220 -61 271 -172 27
-60 29 -70 29 -198 l0 -135 -37 -72 c-36 -68 -38 -78 -38 -162 0 -120 7 -147
50 -192 43 -45 84 -53 96 -17 5 17 -1 27 -24 47 -41 34 -52 67 -52 151 0 58 5
79 38 146 l37 79 0 155 c-1 138 -3 161 -24 213 -30 77 -114 167 -183 198 -65
28 -219 37 -283 16z"/>
<path d="M607 1556 c-49 -18 -108 -59 -134 -94 -54 -74 -93 -182 -93 -263 0
-65 -19 -157 -40 -199 -10 -20 -39 -55 -65 -79 -32 -30 -45 -49 -43 -64 3 -21
8 -22 88 -21 73 0 93 4 138 28 l54 27 -7 -23 c-23 -74 -79 -118 -148 -118 -40
0 -61 -20 -52 -50 5 -16 15 -20 47 -20 102 0 190 62 222 155 23 69 32 180 16
200 -17 21 -37 19 -58 -6 -58 -72 -77 -89 -118 -105 -24 -9 -47 -14 -50 -11
-3 3 6 22 20 44 38 57 57 118 66 219 20 205 113 323 254 324 151 0 243 -100
266 -290 18 -142 29 -185 65 -241 19 -30 30 -55 25 -57 -27 -10 -84 25 -134
80 -45 49 -58 59 -77 53 -21 -7 -21 -11 -16 -94 10 -166 78 -271 176 -271 21
0 31 6 36 21 8 25 -4 40 -47 53 -34 11 -69 62 -84 120 l-7 30 32 -23 c45 -33
113 -51 187 -51 55 0 63 3 69 21 6 17 -4 31 -44 68 -67 62 -91 119 -102 242
-10 121 -22 167 -62 242 -37 70 -102 130 -164 151 -56 19 -164 20 -216 2z"/>
</g>
</svg>
