<?xml version="1.0" standalone="no"?>
<!DOCTYPE svg PUBLIC "-//W3C//DTD SVG 20010904//EN"
 "http://www.w3.org/TR/2001/REC-SVG-20010904/DTD/svg10.dtd">
<svg version="1.0" xmlns="http://www.w3.org/2000/svg"
 width="225.000000pt" height="225.000000pt" viewBox="0 0 225.000000 225.000000"
 preserveAspectRatio="xMidYMid meet">

<g transform="translate(0.000000,225.000000) scale(0.100000,-0.100000)"
fill="#000000" stroke="none">
<path d="M975 2239 c-366 -46 -713 -302 -870 -642 -136 -294 -136 -650 0 -944
103 -224 306 -430 529 -538 373 -181 826 -140 1152 103 570 425 621 1235 108
1722 -248 236 -574 342 -919 299z m365 -86 c197 -39 407 -157 550 -309 294
-315 367 -772 185 -1160 -58 -125 -114 -204 -209 -300 -315 -315 -782 -398
-1182 -209 -125 58 -204 114 -300 209 -224 224 -335 532 -304 841 13 129 40
226 94 341 60 125 115 205 210 300 253 252 602 358 956 287z"/>
<path d="M1437 2013 c-16 -15 -5 -47 28 -77 58 -55 49 -97 -45 -220 -86 -114
-90 -191 -15 -263 30 -28 68 -50 119 -69 49 -19 107 -52 166 -95 49 -37 111
-75 137 -84 96 -33 118 -48 118 -79 0 -48 -38 -68 -153 -77 -55 -5 -113 -14
-128 -19 -47 -18 -92 -69 -110 -124 -21 -65 -38 -84 -85 -96 -119 -32 -153
-167 -79 -316 53 -107 202 -220 245 -184 29 24 17 48 -37 75 -94 47 -150 118
-168 213 -15 80 3 121 60 140 65 21 94 45 114 94 10 24 24 57 32 75 19 45 54
60 164 68 159 12 220 55 220 157 0 68 -30 99 -124 127 -58 17 -94 37 -163 89
-58 44 -121 81 -181 106 -101 41 -122 62 -122 117 0 29 11 51 54 105 29 38 61
84 71 103 36 70 11 185 -49 224 -26 18 -58 22 -69 10z"/>
<path d="M238 1414 c-14 -13 -8 -52 8 -58 9 -3 40 -6 70 -6 73 0 89 -10 108
-68 20 -59 47 -86 106 -107 65 -22 70 -34 70 -152 0 -149 28 -193 122 -193 35
0 54 -6 75 -24 l28 -24 5 -259 c5 -247 6 -260 28 -295 38 -61 151 -101 182
-63 23 27 7 48 -44 59 -35 8 -55 19 -70 39 -20 27 -21 44 -26 280 -5 230 -7
255 -25 287 -25 42 -76 70 -130 70 -67 0 -69 5 -75 144 -6 145 -14 159 -105
196 -49 20 -55 26 -75 75 -35 85 -56 99 -158 103 -48 2 -90 0 -94 -4z"/>
</g>
</svg>
