<?xml version="1.0" standalone="no"?>
<!DOCTYPE svg PUBLIC "-//W3C//DTD SVG 20010904//EN"
 "http://www.w3.org/TR/2001/REC-SVG-20010904/DTD/svg10.dtd">
<svg version="1.0" xmlns="http://www.w3.org/2000/svg"
 width="128.000000pt" height="128.000000pt" viewBox="0 0 128.000000 128.000000"
 preserveAspectRatio="xMidYMid meet">

<g transform="translate(0.000000,128.000000) scale(0.100000,-0.100000)"
fill="#000000" stroke="none">
<path d="M482 1260 c-113 -30 -206 -84 -292 -170 -254 -253 -254 -646 0 -901
207 -208 523 -248 778 -97 72 42 178 148 220 220 81 136 110 308 78 458 -74
354 -438 581 -784 490z m274 -35 c218 -46 378 -188 450 -402 34 -98 38 -243
10 -338 -46 -157 -158 -297 -291 -367 -105 -55 -174 -72 -290 -71 -81 0 -115
5 -178 27 -131 44 -237 123 -308 228 -51 75 -75 130 -94 222 -19 94 -19 137 1
234 47 231 230 417 459 466 92 19 150 19 241 1z"/>
<path d="M432 768 c2 -66 6 -83 18 -83 12 0 15 16 15 80 0 69 -2 80 -18 83
-16 3 -18 -4 -15 -80z"/>
<path d="M812 768 c2 -66 6 -83 18 -83 12 0 16 17 18 83 3 77 2 82 -18 82 -20
0 -21 -5 -18 -82z"/>
<path d="M391 417 c-15 -19 18 -48 94 -84 53 -25 72 -28 155 -28 89 0 100 2
165 35 72 36 97 62 80 79 -7 7 -26 0 -56 -19 -67 -44 -166 -66 -238 -53 -62
12 -109 31 -157 62 -26 18 -33 19 -43 8z"/>
</g>
</svg>
